# xmcd
#
# Track frame offsets:
#	182
#	19570
#	47240
#	75782
#	86215
#	104337
#	118797
#	131410
#	150327
#	166925
#	193120
#
# Disc length: 2895 seconds
#
# Revision: 0
# Processed by: cddbd v1.4PL0 Copyright (c) Steve Scherf et al.
# Submitted via: EasyCDDAExtractor 4.5.2.1
#
DISCID=7d0b4d0b
DTITLE=Clarence Brown - Jazz and Blues Collection - CD 83
DYEAR=1900
DGENRE=Blues
TTITLE0=Pressure Cooker
TTITLE1=Frosty
TTITLE2=Gate's Tune
TTITLE3=When My Blue Moon Turns To Gold Again
TTITLE4=Louisianne
TTITLE5=Up Jumped The Devil
TTITLE6=The Dark End Of The Hallway
TTITLE7=Chicken Shift
TTITLE8=Take The "A" Train
TTITLE9=Honeyboy
TTITLE10=Boogie Woogie On St. Louis Blues
EXTD=
EXTT0=
EXTT1=
EXTT2=
EXTT3=
EXTT4=
EXTT5=
EXTT6=
EXTT7=
EXTT8=
EXTT9=
EXTT10=
PLAYORDER=
